<?xml version="1.0" encoding="UTF-8" standalone="no"?>
<!DOCTYPE svg PUBLIC "-//W3C//DTD SVG 1.1//EN" "http://www.w3.org/Graphics/SVG/1.1/DTD/svg11.dtd">
<svg width="100%" height="100%" viewBox="0 0 256 257" version="1.1" xmlns="http://www.w3.org/2000/svg" xmlns:xlink="http://www.w3.org/1999/xlink" xml:space="preserve" xmlns:serif="http://www.serif.com/" style="fill-rule:evenodd;clip-rule:evenodd;stroke-linecap:square;stroke-miterlimit:1.5;">
    <g id="Artboard1" transform="matrix(0.157122,0,0,0.240049,-111.011654,-147.587872)">
        <rect x="706.533" y="614.823" width="1629.212" height="1066.646" style="fill:none;"/>
        <g id="Spool-R" serif:id="Spool R" transform="matrix(5.590542,0,0,3.659229,-5167.200196,-2850.190136)">
            <path d="M1196.367,976.879C1260.275,976.879 1312.16,1028.764 1312.16,1092.672C1312.16,1156.58 1260.275,1208.465 1196.367,1208.465C1132.459,1208.465 1080.574,1156.58 1080.574,1092.672C1080.574,1028.764 1132.459,976.879 1196.367,976.879ZM1186.367,1016.77C1173.763,1017.51 1164.729,1020.603 1156.273,1025.485C1147.86,1030.342 1140.643,1038.363 1135.634,1046.061L1150.554,1054.675L1140.554,1071.995L1125.634,1063.381C1115.025,1084.093 1117.324,1108.156 1125.634,1121.963L1140.554,1113.349L1150.554,1130.669L1135.634,1139.283C1146.985,1156.058 1166.018,1167.938 1186.367,1168.574L1186.367,1151.346L1206.367,1151.346L1206.367,1168.574C1226.828,1168.274 1246.309,1156.058 1257.1,1139.283L1242.18,1130.669L1252.18,1113.349L1267.1,1121.963C1277.246,1103.908 1277.106,1078.776 1267.1,1063.381L1252.714,1073.597L1242.18,1054.675L1257.1,1046.061C1247.541,1029.958 1227.23,1016.996 1206.367,1016.77L1206.367,1033.998L1186.367,1033.998L1186.367,1016.77Z" style="fill:white;stroke:black;stroke-width:7.59px;"/>
        </g>
    </g>
</svg>
