<?xml version="1.0" encoding="UTF-8" standalone="no"?>
<!DOCTYPE svg PUBLIC "-//W3C//DTD SVG 1.1//EN" "http://www.w3.org/Graphics/SVG/1.1/DTD/svg11.dtd">
<svg width="100%" height="100%" viewBox="0 0 1798 1229" version="1.1" xmlns="http://www.w3.org/2000/svg" xmlns:xlink="http://www.w3.org/1999/xlink" xml:space="preserve" xmlns:serif="http://www.serif.com/" style="fill-rule:evenodd;clip-rule:evenodd;stroke-linecap:square;stroke-miterlimit:1.5;">
    <g id="Artboard1" transform="matrix(1.103048,0,0,1.151483,-779.340258,-707.958846)">
        <rect x="706.533" y="614.823" width="1629.212" height="1066.646" style="fill:none;"/>
        <g id="Donut-L" serif:id="Donut L" transform="matrix(1.740081,0,0,1.666887,239.956209,140.004768)">
            <path d="M559.779,400.01C667.221,400.01 754.451,487.24 754.451,594.681C754.451,702.123 667.221,789.353 559.779,789.353C452.338,789.353 365.108,702.123 365.108,594.681C365.108,487.24 452.338,400.01 559.779,400.01ZM559.779,541.231C589.279,541.231 613.23,565.182 613.23,594.681C613.23,624.181 589.279,648.132 559.779,648.132C530.279,648.132 506.329,624.181 506.329,594.681C506.329,565.182 530.279,541.231 559.779,541.231Z"/>
        </g>
        <g id="Donut-R" serif:id="Donut R" transform="matrix(1.066051,0,0,1.02121,1223.84177,523.977325)">
            <path d="M559.779,400.01C667.221,400.01 754.451,487.24 754.451,594.681C754.451,702.123 667.221,789.353 559.779,789.353C452.338,789.353 365.108,702.123 365.108,594.681C365.108,487.24 452.338,400.01 559.779,400.01ZM559.779,504.098C609.774,504.098 650.363,544.687 650.363,594.681C650.363,644.676 609.774,685.265 559.779,685.265C509.785,685.265 469.195,644.676 469.195,594.681C469.195,544.687 509.785,504.098 559.779,504.098Z"/>
        </g>
        <g id="Cassette-Body" serif:id="Cassette Body" transform="matrix(0.908575,0,0,0.868445,703.169514,614.823482)">
            <path d="M106.145,1069.04L92.87,1055.736L92.87,800.229L106.145,786.926L106.145,179.465C106.145,154.926 126.024,135.003 150.509,135.003L1641.069,135.003C1665.554,135.003 1685.433,154.926 1685.433,179.465L1685.433,786.926L1698.708,800.229L1698.708,1055.736L1685.433,1069.04L1685.433,1095.791C1685.433,1120.33 1665.554,1140.253 1641.069,1140.253L150.509,1140.253C126.024,1140.253 106.145,1120.33 106.145,1095.791L106.145,1069.04ZM1229.988,490.983C1172.881,490.983 1126.517,537.449 1126.517,594.681C1126.517,651.914 1172.881,698.38 1229.988,698.38C1287.095,698.38 1333.459,651.914 1333.459,594.681C1333.459,537.449 1287.095,490.983 1229.988,490.983ZM669.08,1023.894C647.308,1023.894 629.631,1041.609 629.631,1063.429C629.631,1085.249 647.308,1102.965 669.08,1102.965C690.853,1102.965 708.529,1085.249 708.529,1063.429C708.529,1041.609 690.853,1023.894 669.08,1023.894ZM563.139,490.983C506.031,490.983 459.667,537.449 459.667,594.681C459.667,651.914 506.031,698.38 563.139,698.38C620.246,698.38 666.61,651.914 666.61,594.681C666.61,537.449 620.246,490.983 563.139,490.983ZM1270.129,1048.926C1248.356,1048.926 1230.68,1066.642 1230.68,1088.462C1230.68,1110.282 1248.356,1127.997 1270.129,1127.997C1291.901,1127.997 1309.577,1110.282 1309.577,1088.462C1309.577,1066.642 1291.901,1048.926 1270.129,1048.926ZM1076.11,506.861L716.027,506.861L716.027,683.404L1076.11,683.404L1076.11,506.861ZM508.906,1048.926C487.134,1048.926 469.458,1066.642 469.458,1088.462C469.458,1110.282 487.134,1127.997 508.906,1127.997C530.679,1127.997 548.355,1110.282 548.355,1088.462C548.355,1066.642 530.679,1048.926 508.906,1048.926ZM1114.613,1023.894C1092.841,1023.894 1075.165,1041.609 1075.165,1063.429C1075.165,1085.249 1092.841,1102.965 1114.613,1102.965C1136.386,1102.965 1154.062,1085.249 1154.062,1063.429C1154.062,1041.609 1136.386,1023.894 1114.613,1023.894Z" style="fill:rgb(38,38,38);"/>
            <path d="M99.493,1071.801L86.218,1058.498L86.218,797.468L99.493,784.164L99.493,179.465C99.493,151.246 122.353,128.337 150.509,128.337L1641.069,128.337C1669.226,128.337 1692.085,151.246 1692.085,179.465L1692.085,784.164L1705.36,797.468L1705.36,1058.498L1692.085,1071.801L1692.085,1095.791C1692.085,1124.009 1669.226,1146.919 1641.069,1146.919L150.509,1146.919C122.353,1146.919 99.493,1124.009 99.493,1095.791L99.493,1071.801ZM106.145,1069.04L106.145,1095.791C106.145,1120.33 126.024,1140.253 150.509,1140.253L1641.069,1140.253C1665.554,1140.253 1685.433,1120.33 1685.433,1095.791L1685.433,1069.04L1698.708,1055.736L1698.708,800.229L1685.433,786.926L1685.433,179.465C1685.433,154.926 1665.554,135.003 1641.069,135.003L150.509,135.003C126.024,135.003 106.145,154.926 106.145,179.465L106.145,786.926L92.87,800.229L92.87,1055.736L106.145,1069.04ZM669.08,1023.894C690.853,1023.894 708.529,1041.609 708.529,1063.429C708.529,1085.249 690.853,1102.965 669.08,1102.965C647.308,1102.965 629.631,1085.249 629.631,1063.429C629.631,1041.609 647.308,1023.894 669.08,1023.894ZM669.08,1030.56C650.979,1030.56 636.283,1045.288 636.283,1063.429C636.283,1081.57 650.979,1096.298 669.08,1096.298C687.181,1096.298 701.877,1081.57 701.877,1063.429C701.877,1045.288 687.181,1030.56 669.08,1030.56ZM1076.11,506.861L1076.11,683.404L716.027,683.404L716.027,506.861L1076.11,506.861ZM1069.458,513.527L722.679,513.527L722.679,676.737L1069.458,676.737L1069.458,513.527ZM563.139,490.983C620.246,490.983 666.61,537.449 666.61,594.681C666.61,651.914 620.246,698.38 563.139,698.38C506.031,698.38 459.667,651.914 459.667,594.681C459.667,537.449 506.031,490.983 563.139,490.983ZM563.139,497.649C509.703,497.649 466.32,541.128 466.32,594.681C466.32,648.235 509.703,691.714 563.139,691.714C616.575,691.714 659.958,648.235 659.958,594.681C659.958,541.128 616.575,497.649 563.139,497.649ZM1114.613,1023.894C1136.386,1023.894 1154.062,1041.609 1154.062,1063.429C1154.062,1085.249 1136.386,1102.965 1114.613,1102.965C1092.841,1102.965 1075.165,1085.249 1075.165,1063.429C1075.165,1041.609 1092.841,1023.894 1114.613,1023.894ZM1114.613,1030.56C1096.512,1030.56 1081.817,1045.288 1081.817,1063.429C1081.817,1081.57 1096.512,1096.298 1114.613,1096.298C1132.714,1096.298 1147.41,1081.57 1147.41,1063.429C1147.41,1045.288 1132.714,1030.56 1114.613,1030.56ZM1229.988,490.983C1287.095,490.983 1333.459,537.449 1333.459,594.681C1333.459,651.914 1287.095,698.38 1229.988,698.38C1172.881,698.38 1126.517,651.914 1126.517,594.681C1126.517,537.449 1172.881,490.983 1229.988,490.983ZM1229.988,497.649C1176.552,497.649 1133.169,541.128 1133.169,594.681C1133.169,648.235 1176.552,691.714 1229.988,691.714C1283.424,691.714 1326.807,648.235 1326.807,594.681C1326.807,541.128 1283.424,497.649 1229.988,497.649ZM508.906,1048.926C530.679,1048.926 548.355,1066.642 548.355,1088.462C548.355,1110.282 530.679,1127.997 508.906,1127.997C487.134,1127.997 469.458,1110.282 469.458,1088.462C469.458,1066.642 487.134,1048.926 508.906,1048.926ZM508.906,1055.593C490.805,1055.593 476.11,1070.321 476.11,1088.462C476.11,1106.603 490.805,1121.331 508.906,1121.331C527.007,1121.331 541.703,1106.603 541.703,1088.462C541.703,1070.321 527.007,1055.593 508.906,1055.593ZM1270.129,1048.926C1291.901,1048.926 1309.577,1066.642 1309.577,1088.462C1309.577,1110.282 1291.901,1127.997 1270.129,1127.997C1248.356,1127.997 1230.68,1110.282 1230.68,1088.462C1230.68,1066.642 1248.356,1048.926 1270.129,1048.926ZM1270.129,1055.593C1252.028,1055.593 1237.332,1070.321 1237.332,1088.462C1237.332,1106.603 1252.028,1121.331 1270.129,1121.331C1288.23,1121.331 1302.925,1106.603 1302.925,1088.462C1302.925,1070.321 1288.23,1055.593 1270.129,1055.593Z"/>
        </g>
        <g id="Sticker" transform="matrix(0.90709,0,0,0.868445,127.094093,177.893877)">
            <path d="M2220.653,735.527L2220.653,1365.036C2220.653,1372.361 2214.709,1378.308 2207.388,1378.308L843.584,1378.308C836.262,1378.308 830.318,1372.361 830.318,1365.036L830.318,735.527C830.318,728.201 836.262,722.254 843.584,722.254L2207.388,722.254C2214.709,722.254 2220.653,728.201 2220.653,735.527ZM1199.933,1217.686L1868.895,1217.686C1934.99,1217.686 1988.651,1163.995 1988.651,1097.862C1988.651,1031.73 1934.99,978.039 1868.895,978.039L1199.933,978.039C1133.838,978.039 1080.177,1031.73 1080.177,1097.862C1080.177,1163.995 1133.838,1217.686 1199.933,1217.686Z" style="fill:rgb(255,120,32);"/>
            <path d="M2227.316,735.527L2227.316,1365.036C2227.316,1376.041 2218.386,1384.975 2207.388,1384.975L843.584,1384.975C832.585,1384.975 823.655,1376.041 823.655,1365.036L823.655,735.527C823.655,724.522 832.585,715.587 843.584,715.587L2207.388,715.587C2218.386,715.587 2227.316,724.522 2227.316,735.527ZM2220.653,735.527C2220.653,728.201 2214.709,722.254 2207.388,722.254L843.584,722.254C836.262,722.254 830.318,728.201 830.318,735.527L830.318,1365.036C830.318,1372.361 836.262,1378.308 843.584,1378.308L2207.388,1378.308C2214.709,1378.308 2220.653,1372.361 2220.653,1365.036L2220.653,735.527ZM1199.933,1217.686C1133.838,1217.686 1080.177,1163.995 1080.177,1097.862C1080.177,1031.73 1133.838,978.039 1199.933,978.039L1868.895,978.039C1934.99,978.039 1988.651,1031.73 1988.651,1097.862C1988.651,1163.995 1934.99,1217.686 1868.895,1217.686L1199.933,1217.686ZM1199.933,1211.019L1868.895,1211.019C1931.313,1211.019 1981.988,1160.315 1981.988,1097.862C1981.988,1035.409 1931.313,984.705 1868.895,984.705L1199.933,984.705C1137.515,984.705 1086.84,1035.409 1086.84,1097.862C1086.84,1160.315 1137.515,1211.019 1199.933,1211.019Z"/>
        </g>
        <g id="bottom" transform="matrix(0.906579,0,0,0.358462,706.533339,1231.622782)">
            <clipPath id="_clip1">
                <path d="M1582.756,-1157.622L1582.756,367.486C1582.756,385.233 1576.808,399.642 1569.483,399.642L204.91,399.642C197.584,399.642 191.637,385.233 191.637,367.486L191.637,-1157.622C191.637,-1175.37 197.584,-1189.778 204.91,-1189.778L1569.483,-1189.778C1576.808,-1189.778 1582.756,-1175.37 1582.756,-1157.622ZM561.46,10.501L1230.799,10.501C1296.932,10.501 1350.623,-119.576 1350.623,-279.794C1350.623,-440.013 1296.932,-570.09 1230.799,-570.09L561.46,-570.09C495.328,-570.09 441.637,-440.013 441.637,-279.794C441.637,-119.576 495.328,10.501 561.46,10.501Z"/>
            </clipPath>
            <g clip-path="url(#_clip1)">
                <rect x="191.637" y="243.057" width="1391.119" height="156.585" style="fill:white;"/>
            </g>
        </g>
        <g id="bottom1" serif:id="bottom" transform="matrix(0.906579,0,0,0.153391,706.533339,1242.016022)">
            <rect x="191.637" y="243.057" width="1391.119" height="156.585" style="fill:white;"/>
        </g>
        <g transform="matrix(0.906579,0,0,0.868445,706.533339,614.823482)">
            <rect x="1086.597" y="768.588" width="202.442" height="102.744" style="fill:rgb(255,120,32);"/>
        </g>
        <g transform="matrix(0.804564,0,0,0.770722,803.096286,696.503406)">
            <g transform="matrix(131.425868,0,0,131.425868,1312.517654,864.986372)">
            </g>
            <text x="1115.379px" y="864.986px" style="font-family:'ArialMT', 'Arial', sans-serif;font-size:131.426px;fill:white;">MX</text>
        </g>
        <g transform="matrix(0.906579,0,0,0.868445,128.229245,177.893877)">
            <path d="M980.621,1641.168L1035.943,1406.371L2022.429,1406.371L2077.55,1640.228" style="fill:none;stroke:black;stroke-width:6.67px;"/>
        </g>
        <g transform="matrix(0.906579,0,0,0.868445,706.533339,614.823482)">
            <rect x="191.637" y="243.057" width="1391.119" height="156.585" style="fill:white;"/>
        </g>
        <g transform="matrix(3.042959,0,0,2.914962,-2323.863662,-655.842054)">
            <g transform="matrix(30.189911,0,0,30.189911,1457.485663,646.762602)">
            </g>
            <text x="1423.905px" y="646.763px" style="font-family:'Arial-BoldMT', 'Arial', sans-serif;font-weight:700;font-size:30.19px;fill:white;">90</text>
        </g>
        <g transform="matrix(0.906579,0,0,0.868445,714.535843,616.176303)">
            <g transform="matrix(20,0,0,20,1478.489387,850.993059)">
            </g>
            <text x="1300.687px" y="850.993px" style="font-family:'Arial-BoldMT', 'Arial', sans-serif;font-weight:700;font-size:20px;">MADE IN NOR<tspan x="1434.769px 1452.542px 1465.15px " y="850.993px 850.993px 850.993px ">WAY</tspan></text>
        </g>
        <g>
            <g transform="matrix(0.906579,0,0,0.868445,706.533339,614.823482)">
                <rect x="792.46" y="543.565" width="4.832" height="90.276" style="stroke:white;stroke-width:2.67px;"/>
            </g>
            <g transform="matrix(0.906579,0,0,0.868445,751.258663,614.823482)">
                <rect x="792.46" y="543.565" width="4.832" height="90.276" style="stroke:white;stroke-width:2.67px;"/>
            </g>
            <g transform="matrix(0.906579,0,0,0.868445,796.443194,614.823482)">
                <rect x="792.46" y="543.565" width="4.832" height="90.276" style="stroke:white;stroke-width:2.67px;"/>
            </g>
            <g transform="matrix(0.906579,0,0,0.868445,841.168501,614.823482)">
                <rect x="792.46" y="543.565" width="4.832" height="90.276" style="stroke:white;stroke-width:2.67px;"/>
            </g>
            <g transform="matrix(0.906579,0,0,0.868445,886.585442,614.823482)">
                <rect x="792.46" y="543.565" width="4.832" height="90.276" style="stroke:white;stroke-width:2.67px;"/>
            </g>
        </g>
        <g transform="matrix(0.989324,0,0,0.94771,681.464922,585.514874)">
            <g transform="matrix(101.333333,0,0,101.333333,1175.585561,362.034068)">
            </g>
            
        </g>
    </g>
</svg>
